<svg xmlns="http://www.w3.org/2000/svg" width="10" height="10" viewBox="0 0 10 10">
  <path id="delete" d="M220.6,392.622a.382.382,0,0,1,.4.367v.19a.386.386,0,0,1-.4.367H211.4a.386.386,0,0,1-.4-.367v-.19a.382.382,0,0,1,.4-.367h1.62a.7.7,0,0,0,.689-.507l.084-.341a1.085,1.085,0,0,1,1.062-.773h2.294a1.088,1.088,0,0,1,1.057.749l.091.365a.7.7,0,0,0,.689.508Zm-.823,6.946c.169-1.418.465-4.788.465-4.823a.346.346,0,0,0-.1-.279.425.425,0,0,0-.291-.117h-7.706a.414.414,0,0,0-.291.117.372.372,0,0,0-.106.279c0,.007.012.125.03.323.079.882.3,3.337.44,4.5a1.555,1.555,0,0,0,1.628,1.413c.7.015,1.416.02,2.151.02.692,0,1.395,0,2.114-.02A1.559,1.559,0,0,0,219.781,399.567Z" transform="translate(-211 -391)" fill="#fff" fill-rule="evenodd"/>
</svg>
