<svg xmlns="http://www.w3.org/2000/svg" width="10" height="10" viewBox="0 0 10 10">
  <path id="edit" d="M270.542,401.46l4.882-6.313a1.334,1.334,0,0,0,.271-1.134,1.7,1.7,0,0,0-.637-.973l-.819-.651a1.435,1.435,0,0,0-2.1.143l-.548.711a.21.21,0,0,0,.035.292l1.415,1.134a.586.586,0,0,1,.183.353.524.524,0,0,1-.454.579.469.469,0,0,1-.359-.1l-1.456-1.159a.175.175,0,0,0-.236.03l-3.461,4.479a1.185,1.185,0,0,0-.224,1l.442,1.917a.222.222,0,0,0,.218.173l1.946-.024A1.169,1.169,0,0,0,270.542,401.46Zm2.724-.6h3.172a.569.569,0,0,1,0,1.137h-3.172a.569.569,0,0,1,0-1.137Z" transform="translate(-267 -392)" fill="#fff" fill-rule="evenodd"/>
</svg>
